<svg width="121" height="120" viewBox="0 0 121 120" fill="none" xmlns="http://www.w3.org/2000/svg">
<rect x="0.5" width="120" height="120" rx="60" fill="#686868"/>
<path d="M84.804 56.8286C83.2745 44.5357 72.96 35 60.5 35C50.854 35 42.475 40.7536 38.6495 49.8214C31.1315 52.1143 25.5 59.3571 25.5 67.1429C25.5 76.9893 33.3505 85 43 85H81.5C89.221 85 95.5 78.5929 95.5 70.7143C95.4946 67.5129 94.4382 64.4056 92.4994 61.8887C90.5606 59.3717 87.8513 57.5902 84.804 56.8286ZM64 67.1429V77.8571H57V67.1429H46.5L60.5 49.2857L74.5 67.1429H64Z" fill="white"/>
</svg>
